<?xml version="1.0" encoding="UTF-8" standalone="no"?>
<!-- Creator: CorelDRAW X6 -->

<svg
   xmlns:dc="http://purl.org/dc/elements/1.1/"
   xmlns:cc="http://creativecommons.org/ns#"
   xmlns:rdf="http://www.w3.org/1999/02/22-rdf-syntax-ns#"
   xmlns:svg="http://www.w3.org/2000/svg"
   xmlns="http://www.w3.org/2000/svg"
   xmlns:sodipodi="http://sodipodi.sourceforge.net/DTD/sodipodi-0.dtd"
   xmlns:inkscape="http://www.inkscape.org/namespaces/inkscape"
   width="2.51033in"
   version="1.1"
   shape-rendering="geometricPrecision"
   clip-rule="evenodd"
   text-rendering="geometricPrecision"
   image-rendering="optimizeQuality"
   viewBox="0 0 224012 96468"
   fill-rule="evenodd"
   height="1.08105in"
   xml:space="preserve"
   id="svg2"
   inkscape:version="0.91 r13725"
   sodipodi:docname="BAT-MKR1000-PCB.svg"><metadata
     id="metadata81"><rdf:RDF><cc:Work
         rdf:about=""><dc:format>image/svg+xml</dc:format><dc:type
           rdf:resource="http://purl.org/dc/dcmitype/StillImage" /></cc:Work></rdf:RDF></metadata><defs
     id="defs79" /><sodipodi:namedview
     pagecolor="#ffffff"
     bordercolor="#666666"
     borderopacity="1"
     objecttolerance="10"
     gridtolerance="10"
     guidetolerance="10"
     inkscape:pageopacity="0"
     inkscape:pageshadow="2"
     inkscape:window-width="2480"
     inkscape:window-height="1395"
     id="namedview77"
     showgrid="false"
     inkscape:zoom="5.9527505"
     inkscape:cx="126.77118"
     inkscape:cy="38.120345"
     inkscape:window-x="80"
     inkscape:window-y="1"
     inkscape:window-maximized="1"
     inkscape:current-layer="MKR1000" /><desc
     id="desc4"><referenceFile>MKR1000-v2_pcb.svg</referenceFile></desc><g
     gorn="0.1"
     id="MKR1000"><metadata
       id="CorelCorpID_0Corel-Layer" /><g
       gorn="0.1.2"
       id="silkscreen"><path
         d="M351 31759l0 -31408 216024 88 0 17935 7284 0 0 53366 -7285 0 0 17935 -148159 -60m-29745 -12l-38120 -15 0 -31233"
         id="path71"
         stroke-width="702.644"
         stroke="#373435"
         fill="none" /><text
         font-size="9915"
         x="84672"
         font-weight="500"
         y="48666"
         id="text73"
         font-family="OCRA"
         fill="#373435">MKR1000</text>
<text
         font-size="6816.7"
         x="38880.945"
         font-weight="bold"
         y="76037.023"
         id="text75"
         style="font-weight:bold;font-size:6816.70019531px;font-family:'Droid Sans';fill:#373435">3.3V Li-Po</text>
<text
         style="font-weight:bold;font-size:6816.70019531px;font-family:'Droid Sans';fill:#373435"
         id="text4220"
         y="85864.281"
         font-weight="bold"
         x="44210.984"
         font-size="6816.7">+    -</text>
</g><g
       gorn="0.1.1"
       id="copper1"><path
         gorn="0.1.1.1"
         d="M196373 9362c0,-1358 -1101,-2459 -2459,-2459 -1358,0 -2459,1101 -2459,2459 0,1358 1101,2459 2459,2459 1359,0 2459,-1101 2459,-2459zm-2459 -2459l0 -1831m2459 -2317l0 2317 -4919 0 0 -2317 4919 0zm-4919 1542l4919 0m-4919 -765l4919 0"
         id="SMD_x0020_Pad"
         stroke-width="1405.29"
         stroke="#F7BD13"
         fill="none" /><path
         gorn="0.1.1.2"
         d="M187449 9362c0,-1358 -1101,-2459 -2459,-2459 -1358,0 -2459,1101 -2459,2459 0,1358 1101,2459 2459,2459 1359,0 2459,-1101 2459,-2459zm-2459 -2459l0 -1831m2459 -2317l0 2317 -4919 0 0 -2317 4919 0zm-4919 1542l4919 0m-4919 -765l4919 0"
         id="SMD_x0020_Pad_0"
         stroke-width="1405.29"
         stroke="#F7BD13"
         fill="none" /><path
         gorn="0.1.1.3"
         d="M178526 9362c0,-1358 -1101,-2459 -2459,-2459 -1358,0 -2459,1101 -2459,2459 0,1358 1101,2459 2459,2459 1359,0 2459,-1101 2459,-2459zm-2459 -2459l0 -1831m2459 -2317l0 2317 -4919 0 0 -2317 4919 0zm-4919 1542l4919 0m-4919 -765l4919 0"
         id="SMD_x0020_Pad_1"
         stroke-width="1405.29"
         stroke="#F7BD13"
         fill="none" /><path
         gorn="0.1.1.4"
         d="M169602 9362c0,-1358 -1101,-2459 -2459,-2459 -1358,0 -2459,1101 -2459,2459 0,1358 1101,2459 2459,2459 1359,0 2459,-1101 2459,-2459zm-2459 -2459l0 -1831m2459 -2317l0 2317 -4919 0 0 -2317 4919 0zm-4919 1542l4919 0m-4919 -765l4919 0"
         id="SMD_x0020_Pad_2"
         stroke-width="1405.29"
         stroke="#F7BD13"
         fill="none" /><path
         gorn="0.1.1.5"
         d="M160678 9362c0,-1358 -1101,-2459 -2459,-2459 -1358,0 -2459,1101 -2459,2459 0,1358 1101,2459 2459,2459 1359,0 2459,-1101 2459,-2459zm-2459 -2459l0 -1831m2459 -2317l0 2317 -4919 0 0 -2317 4919 0zm-4919 1542l4919 0m-4919 -765l4919 0"
         id="SMD_x0020_Pad_3"
         stroke-width="1405.29"
         stroke="#F7BD13"
         fill="none" /><path
         gorn="0.1.1.6"
         d="M151755 9362c0,-1358 -1101,-2459 -2459,-2459 -1358,0 -2459,1101 -2459,2459 0,1358 1101,2459 2459,2459 1359,0 2459,-1101 2459,-2459zm-2459 -2459l0 -1831m2459 -2317l0 2317 -4919 0 0 -2317 4919 0zm-4919 1542l4919 0m-4919 -765l4919 0"
         id="SMD_x0020_Pad_4"
         stroke-width="1405.29"
         stroke="#F7BD13"
         fill="none" /><path
         gorn="0.1.1.7"
         d="M142831 9362c0,-1358 -1101,-2459 -2459,-2459 -1358,0 -2459,1101 -2459,2459 0,1358 1101,2459 2459,2459 1359,0 2459,-1101 2459,-2459zm-2459 -2459l0 -1831m2459 -2317l0 2317 -4919 0 0 -2317 4919 0zm-4919 1542l4919 0m-4919 -765l4919 0"
         id="SMD_x0020_Pad_5"
         stroke-width="1405.29"
         stroke="#F7BD13"
         fill="none" /><path
         gorn="0.1.1.8"
         d="M133908 9362c0,-1358 -1101,-2459 -2459,-2459 -1358,0 -2459,1101 -2459,2459 0,1358 1101,2459 2459,2459 1359,0 2459,-1101 2459,-2459zm-2459 -2459l0 -1831m2459 -2317l0 2317 -4919 0 0 -2317 4919 0zm-4919 1542l4919 0m-4919 -765l4919 0"
         id="SMD_x0020_Pad_6"
         stroke-width="1405.29"
         stroke="#F7BD13"
         fill="none" /><path
         gorn="0.1.1.9"
         d="M124984 9362c0,-1358 -1101,-2459 -2459,-2459 -1358,0 -2459,1101 -2459,2459 0,1358 1101,2459 2459,2459 1359,0 2459,-1101 2459,-2459zm-2459 -2459l0 -1831m2459 -2317l0 2317 -4919 0 0 -2317 4919 0zm-4919 1542l4919 0m-4919 -765l4919 0"
         id="SMD_x0020_Pad_7"
         stroke-width="1405.29"
         stroke="#F7BD13"
         fill="none" /><path
         gorn="0.1.1.10"
         d="M116061 9362c0,-1358 -1101,-2459 -2459,-2459 -1358,0 -2459,1101 -2459,2459 0,1358 1101,2459 2459,2459 1359,0 2459,-1101 2459,-2459zm-2459 -2459l0 -1831m2459 -2317l0 2317 -4919 0 0 -2317 4919 0zm-4919 1542l4919 0m-4919 -765l4919 0"
         id="SMD_x0020_Pad_8"
         stroke-width="1405.29"
         stroke="#F7BD13"
         fill="none" /><path
         gorn="0.1.1.11"
         d="M107137 9362c0,-1358 -1101,-2459 -2459,-2459 -1358,0 -2459,1101 -2459,2459 0,1358 1101,2459 2459,2459 1359,0 2459,-1101 2459,-2459zm-2459 -2459l0 -1831m2459 -2317l0 2317 -4919 0 0 -2317 4919 0zm-4919 1542l4919 0m-4919 -765l4919 0"
         id="SMD_x0020_Pad_9"
         stroke-width="1405.29"
         stroke="#F7BD13"
         fill="none" /><path
         gorn="0.1.1.12"
         d="M98213 9362c0,-1358 -1101,-2459 -2459,-2459 -1358,0 -2459,1101 -2459,2459 0,1358 1101,2459 2459,2459 1359,0 2459,-1101 2459,-2459zm-2459 -2459l0 -1831m2459 -2317l0 2317 -4919 0 0 -2317 4919 0zm-4919 1542l4919 0m-4919 -765l4919 0"
         id="SMD_x0020_Pad_10"
         stroke-width="1405.29"
         stroke="#F7BD13"
         fill="none" /><path
         gorn="0.1.1.13"
         d="M89290 9362c0,-1358 -1101,-2459 -2459,-2459 -1358,0 -2459,1101 -2459,2459 0,1358 1101,2459 2459,2459 1359,0 2459,-1101 2459,-2459zm-2459 -2459l0 -1831m2459 -2317l0 2317 -4919 0 0 -2317 4919 0zm-4919 1542l4919 0m-4919 -765l4919 0"
         id="SMD_x0020_Pad_11"
         stroke-width="1405.29"
         stroke="#F7BD13"
         fill="none" /><path
         gorn="0.1.1.14"
         d="M80366 9362c0,-1358 -1101,-2459 -2459,-2459 -1358,0 -2459,1101 -2459,2459 0,1358 1101,2459 2459,2459 1359,0 2459,-1101 2459,-2459zm-2459 -2459l0 -1831m2459 -2317l0 2317 -4919 0 0 -2317 4919 0zm-4919 1542l4919 0m-4919 -765l4919 0"
         id="SMD_x0020_Pad_12"
         stroke-width="1405.29"
         stroke="#F7BD13"
         fill="none" /><path
         gorn="0.1.1.15"
         d="M80367 80751c0,1358 -1101,2459 -2459,2459 -1358,0 -2459,-1101 -2459,-2459 0,-1358 1101,-2459 2459,-2459 1359,0 2459,1101 2459,2459zm-2459 2459l0 1831m2459 2317l0 -2317 -4919 0 0 2317 4919 0zm-4919 -1542l4919 0m-4919 765l4919 0"
         id="SMD_x0020_Pad_13"
         stroke-width="1405.29"
         stroke="#F7BD13"
         fill="none" /><path
         gorn="0.1.1.16"
         d="M89291 80751c0,1358 -1101,2459 -2459,2459 -1358,0 -2459,-1101 -2459,-2459 0,-1358 1101,-2459 2459,-2459 1359,0 2459,1101 2459,2459zm-2459 2459l0 1831m2459 2317l0 -2317 -4919 0 0 2317 4919 0zm-4919 -1542l4919 0m-4919 765l4919 0"
         id="SMD_x0020_Pad_14"
         stroke-width="1405.29"
         stroke="#F7BD13"
         fill="none" /><path
         gorn="0.1.1.17"
         d="M98214 80751c0,1358 -1101,2459 -2459,2459 -1358,0 -2459,-1101 -2459,-2459 0,-1358 1101,-2459 2459,-2459 1359,0 2459,1101 2459,2459zm-2459 2459l0 1831m2459 2317l0 -2317 -4919 0 0 2317 4919 0zm-4919 -1542l4919 0m-4919 765l4919 0"
         id="SMD_x0020_Pad_15"
         stroke-width="1405.29"
         stroke="#F7BD13"
         fill="none" /><path
         gorn="0.1.1.18"
         d="M107138 80751c0,1358 -1101,2459 -2459,2459 -1358,0 -2459,-1101 -2459,-2459 0,-1358 1101,-2459 2459,-2459 1359,0 2459,1101 2459,2459zm-2459 2459l0 1831m2459 2317l0 -2317 -4919 0 0 2317 4919 0zm-4919 -1542l4919 0m-4919 765l4919 0"
         id="SMD_x0020_Pad_16"
         stroke-width="1405.29"
         stroke="#F7BD13"
         fill="none" /><path
         gorn="0.1.1.19"
         d="M116061 80751c0,1358 -1101,2459 -2459,2459 -1358,0 -2459,-1101 -2459,-2459 0,-1358 1101,-2459 2459,-2459 1359,0 2459,1101 2459,2459zm-2459 2459l0 1831m2459 2317l0 -2317 -4919 0 0 2317 4919 0zm-4919 -1542l4919 0m-4919 765l4919 0"
         id="SMD_x0020_Pad_17"
         stroke-width="1405.29"
         stroke="#F7BD13"
         fill="none" /><path
         gorn="0.1.1.20"
         d="M124985 80751c0,1358 -1101,2459 -2459,2459 -1358,0 -2459,-1101 -2459,-2459 0,-1358 1101,-2459 2459,-2459 1359,0 2459,1101 2459,2459zm-2459 2459l0 1831m2459 2317l0 -2317 -4919 0 0 2317 4919 0zm-4919 -1542l4919 0m-4919 765l4919 0"
         id="SMD_x0020_Pad_18"
         stroke-width="1405.29"
         stroke="#F7BD13"
         fill="none" /><path
         gorn="0.1.1.21"
         d="M133908 80751c0,1358 -1101,2459 -2459,2459 -1358,0 -2459,-1101 -2459,-2459 0,-1358 1101,-2459 2459,-2459 1359,0 2459,1101 2459,2459zm-2459 2459l0 1831m2459 2317l0 -2317 -4919 0 0 2317 4919 0zm-4919 -1542l4919 0m-4919 765l4919 0"
         id="SMD_x0020_Pad_19"
         stroke-width="1405.29"
         stroke="#F7BD13"
         fill="none" /><path
         gorn="0.1.1.22"
         d="M142832 80751c0,1358 -1101,2459 -2459,2459 -1358,0 -2459,-1101 -2459,-2459 0,-1358 1101,-2459 2459,-2459 1359,0 2459,1101 2459,2459zm-2459 2459l0 1831m2459 2317l0 -2317 -4919 0 0 2317 4919 0zm-4919 -1542l4919 0m-4919 765l4919 0"
         id="SMD_x0020_Pad_20"
         stroke-width="1405.29"
         stroke="#F7BD13"
         fill="none" /><path
         gorn="0.1.1.23"
         d="M151756 80751c0,1358 -1101,2459 -2459,2459 -1358,0 -2459,-1101 -2459,-2459 0,-1358 1101,-2459 2459,-2459 1359,0 2459,1101 2459,2459zm-2459 2459l0 1831m2459 2317l0 -2317 -4919 0 0 2317 4919 0zm-4919 -1542l4919 0m-4919 765l4919 0"
         id="SMD_x0020_Pad_21"
         stroke-width="1405.29"
         stroke="#F7BD13"
         fill="none" /><path
         gorn="0.1.1.24"
         d="M160679 80751c0,1358 -1101,2459 -2459,2459 -1358,0 -2459,-1101 -2459,-2459 0,-1358 1101,-2459 2459,-2459 1359,0 2459,1101 2459,2459zm-2459 2459l0 1831m2459 2317l0 -2317 -4919 0 0 2317 4919 0zm-4919 -1542l4919 0m-4919 765l4919 0"
         id="SMD_x0020_Pad_22"
         stroke-width="1405.29"
         stroke="#F7BD13"
         fill="none" /><path
         gorn="0.1.1.25"
         d="M169603 80751c0,1358 -1101,2459 -2459,2459 -1358,0 -2459,-1101 -2459,-2459 0,-1358 1101,-2459 2459,-2459 1359,0 2459,1101 2459,2459zm-2459 2459l0 1831m2459 2317l0 -2317 -4919 0 0 2317 4919 0zm-4919 -1542l4919 0m-4919 765l4919 0"
         id="SMD_x0020_Pad_23"
         stroke-width="1405.29"
         stroke="#F7BD13"
         fill="none" /><path
         gorn="0.1.1.26"
         d="M178526 80751c0,1358 -1101,2459 -2459,2459 -1358,0 -2459,-1101 -2459,-2459 0,-1358 1101,-2459 2459,-2459 1359,0 2459,1101 2459,2459zm-2459 2459l0 1831m2459 2317l0 -2317 -4919 0 0 2317 4919 0zm-4919 -1542l4919 0m-4919 765l4919 0"
         id="SMD_x0020_Pad_24"
         stroke-width="1405.29"
         stroke="#F7BD13"
         fill="none" /><path
         gorn="0.1.1.27"
         d="M187450 80751c0,1358 -1101,2459 -2459,2459 -1358,0 -2459,-1101 -2459,-2459 0,-1358 1101,-2459 2459,-2459 1359,0 2459,1101 2459,2459zm-2459 2459l0 1831m2459 2317l0 -2317 -4919 0 0 2317 4919 0zm-4919 -1542l4919 0m-4919 765l4919 0"
         id="SMD_x0020_Pad_25"
         stroke-width="1405.29"
         stroke="#F7BD13"
         fill="none" /><path
         gorn="0.1.1.28"
         d="M196373 80751c0,1358 -1101,2459 -2459,2459 -1358,0 -2459,-1101 -2459,-2459 0,-1358 1101,-2459 2459,-2459 1359,0 2459,1101 2459,2459zm-2459 2459l0 1831m2459 2317l0 -2317 -4919 0 0 2317 4919 0zm-4919 -1542l4919 0m-4919 765l4919 0"
         id="SMD_x0020_Pad_26"
         stroke-width="1405.29"
         stroke="#F7BD13"
         fill="none" /><path
         id="path4209"
         d="m 48843.228,95233.28 c 0,1358 -1101,2459 -2459,2459 -1358,0 -2459,-1101 -2459,-2459 0,-1358 1101,-2459 2459,-2459 1359,0 2459,1101 2459,2459 z m -2459,2459 0,1831 m 2459,2317 0,-2317 -4919,0 0,2317 4919,0 z m -4919,-1542 4919,0 m -4919,765 4919,0"
         gorn="0.1.1.28"
         inkscape:connector-curvature="0"
         style="fill:none;stroke:#f7bd13;stroke-width:1405.29003906" /><path
         style="fill:none;stroke:#f7bd13;stroke-width:1405.29003906"
         inkscape:connector-curvature="0"
         gorn="0.1.1.28"
         d="m 58723.662,95233.28 c 0,1358 -1101,2459 -2459,2459 -1358,0 -2459,-1101 -2459,-2459 0,-1358 1101,-2459 2459,-2459 1359,0 2459,1101 2459,2459 z m -2459,2459 0,1831 m 2459,2317 0,-2317 -4919,0 0,2317 4919,0 z m -4919,-1542 4919,0 m -4919,765 4919,0"
         id="path4211" /><g
         gorn="0.1.1.0"
         id="copper0"><rect
           width="4916"
           height="4918"
           x="75450"
           y="78293"
           id="rect10"
           stroke-width="1405.29"
           stroke="#F7BD13"
           fill="none" /><circle
           cx="77908"
           cy="80751"
           gorn="0.1.1.0.1"
           r="2459"
           id="connector0pin"
           stroke-width="1405.29"
           stroke="#F7BD13"
           fill="none" /><circle
           cx="86831"
           cy="80751"
           gorn="0.1.1.0.2"
           r="2459"
           id="connector1pin"
           stroke-width="1405.29"
           stroke="#F7BD13"
           fill="none" /><circle
           cx="95755"
           cy="80751"
           gorn="0.1.1.0.3"
           r="2459"
           id="connector2pin"
           stroke-width="1405.29"
           stroke="#F7BD13"
           fill="none" /><circle
           cx="104679"
           cy="80751"
           gorn="0.1.1.0.4"
           r="2459"
           id="connector3pin"
           stroke-width="1405.29"
           stroke="#F7BD13"
           fill="none" /><circle
           cx="113601"
           cy="80751"
           gorn="0.1.1.0.5"
           r="2459"
           id="connector4pin"
           stroke-width="1405.29"
           stroke="#F7BD13"
           fill="none" /><circle
           cx="122526"
           cy="80751"
           gorn="0.1.1.0.6"
           r="2459"
           id="connector5pin"
           stroke-width="1405.29"
           stroke="#F7BD13"
           fill="none" /><circle
           cx="131449"
           cy="80751"
           gorn="0.1.1.0.7"
           r="2459"
           id="connector6pin"
           stroke-width="1405.29"
           stroke="#F7BD13"
           fill="none" /><circle
           cx="140373"
           cy="80751"
           gorn="0.1.1.0.8"
           r="2459"
           id="connector7pin"
           stroke-width="1405.29"
           stroke="#F7BD13"
           fill="none" /><circle
           cx="149296"
           cy="80751"
           gorn="0.1.1.0.9"
           r="2459"
           id="connector8pin"
           stroke-width="1405.29"
           stroke="#F7BD13"
           fill="none" /><circle
           cx="158220"
           cy="80751"
           gorn="0.1.1.0.10"
           r="2459"
           id="connector9pin"
           stroke-width="1405.29"
           stroke="#F7BD13"
           fill="none" /><circle
           cx="167144"
           cy="80751"
           gorn="0.1.1.0.11"
           r="2459"
           id="connector10pin"
           stroke-width="1405.29"
           stroke="#F7BD13"
           fill="none" /><circle
           cx="176067"
           cy="80751"
           gorn="0.1.1.0.12"
           r="2459"
           id="connector11pin"
           stroke-width="1405.29"
           stroke="#F7BD13"
           fill="none" /><circle
           cx="184990"
           cy="80751"
           gorn="0.1.1.0.13"
           r="2459"
           id="connector12pin"
           stroke-width="1405.29"
           stroke="#F7BD13"
           fill="none" /><circle
           cx="193914"
           cy="80751"
           gorn="0.1.1.0.14"
           r="2459"
           id="connector13pin"
           stroke-width="1405.29"
           stroke="#F7BD13"
           fill="none" /><rect
           width="4916"
           height="4918"
           x="191456"
           y="6904"
           id="rect26"
           stroke-width="1405.29"
           stroke="#F7BD13"
           fill="none" /><circle
           cx="193914"
           cy="9362"
           gorn="0.1.1.0.16"
           r="2459"
           id="connector14pin"
           stroke-width="1405.29"
           stroke="#F7BD13"
           fill="none" /><circle
           cx="184990"
           cy="9362"
           gorn="0.1.1.0.17"
           r="2459"
           id="connector15pin"
           stroke-width="1405.29"
           stroke="#F7BD13"
           fill="none" /><circle
           cx="176067"
           cy="9362"
           gorn="0.1.1.0.18"
           r="2459"
           id="connector16pin"
           stroke-width="1405.29"
           stroke="#F7BD13"
           fill="none" /><circle
           cx="167144"
           cy="9362"
           gorn="0.1.1.0.19"
           r="2459"
           id="connector17pin"
           stroke-width="1405.29"
           stroke="#F7BD13"
           fill="none" /><circle
           cx="158220"
           cy="9362"
           gorn="0.1.1.0.20"
           r="2459"
           id="connector18pin"
           stroke-width="1405.29"
           stroke="#F7BD13"
           fill="none" /><circle
           cx="149296"
           cy="9362"
           gorn="0.1.1.0.21"
           r="2459"
           id="connector19pin"
           stroke-width="1405.29"
           stroke="#F7BD13"
           fill="none" /><circle
           cx="140373"
           cy="9362"
           gorn="0.1.1.0.22"
           r="2459"
           id="connector20pin"
           stroke-width="1405.29"
           stroke="#F7BD13"
           fill="none" /><circle
           cx="131449"
           cy="9362"
           gorn="0.1.1.0.23"
           r="2459"
           id="connector21pin"
           stroke-width="1405.29"
           stroke="#F7BD13"
           fill="none" /><circle
           cx="122526"
           cy="9362"
           gorn="0.1.1.0.24"
           r="2459"
           id="connector22pin"
           stroke-width="1405.29"
           stroke="#F7BD13"
           fill="none" /><circle
           cx="113601"
           cy="9363"
           gorn="0.1.1.0.25"
           r="2459"
           id="connector23pin"
           stroke-width="1405.29"
           stroke="#F7BD13"
           fill="none" /><circle
           cx="104679"
           cy="9362"
           gorn="0.1.1.0.26"
           r="2459"
           id="connector24pin"
           stroke-width="1405.29"
           stroke="#F7BD13"
           fill="none" /><circle
           cx="95755"
           cy="9362"
           gorn="0.1.1.0.27"
           r="2459"
           id="connector25pin"
           stroke-width="1405.29"
           stroke="#F7BD13"
           fill="none" /><circle
           cx="86831"
           cy="9362"
           gorn="0.1.1.0.28"
           r="2459"
           id="connector26pin"
           stroke-width="1405.29"
           stroke="#F7BD13"
           fill="none" /><circle
           cx="77908"
           cy="9362"
           gorn="0.1.1.0.29"
           r="2459"
           id="connector27pin"
           stroke-width="1405.29"
           stroke="#F7BD13"
           fill="none" /><circle
           id="circle4213"
           r="2459"
           gorn="0.1.1.0.29"
           cy="95172.898"
           cx="46371.82"
           style="fill:none;stroke:#f7bd13;stroke-width:1405.29003906" /><circle
           style="fill:none;stroke:#f7bd13;stroke-width:1405.29003906"
           cx="56295.5"
           cy="95262.195"
           gorn="0.1.1.0.29"
           r="2459"
           id="circle4216" /></g></g></g></svg>